<?xml version="1.0" standalone="no"?>
<!DOCTYPE svg PUBLIC "-//W3C//DTD SVG 20010904//EN"
 "http://www.w3.org/TR/2001/REC-SVG-20010904/DTD/svg10.dtd">
<svg version="1.0" xmlns="http://www.w3.org/2000/svg"
 width="512.000000pt" height="512.000000pt" viewBox="0 0 512.000000 512.000000"
 preserveAspectRatio="xMidYMid meet">
<metadata>
Created by potrace 1.14, written by Peter Selinger 2001-2017
</metadata>
<g transform="translate(0.000000,512.000000) scale(0.100000,-0.100000)"
fill="#000000" stroke="none">
<path d="M2815 4508 c-175 -140 -284 -291 -354 -490 -29 -84 -59 -251 -55
-312 l1 -30 -19 25 c-35 45 -103 111 -130 127 -16 9 -28 20 -28 24 0 4 -5 8
-11 8 -17 0 -198 122 -252 170 -70 63 -133 149 -181 250 -33 69 -45 87 -54 78
-7 -7 -12 -17 -12 -24 0 -7 -4 -14 -8 -16 -15 -6 -80 -154 -106 -238 -30 -101
-40 -164 -39 -247 1 -49 -2 -62 -15 -65 -26 -6 -293 -1 -332 6 -19 4 -48 9
-65 12 -16 3 -54 14 -82 24 -51 19 -53 19 -53 2 0 -10 3 -22 7 -26 4 -3 8 -13
9 -21 7 -48 104 -217 163 -284 27 -31 27 -35 -6 -50 -223 -99 -330 -375 -232
-597 22 -48 79 -128 117 -160 l24 -21 -24 -44 c-90 -160 -79 -357 27 -501 43
-58 119 -119 179 -144 33 -14 44 -23 40 -34 -31 -76 -43 -193 -29 -275 11 -60
69 -175 113 -220 61 -64 144 -115 210 -130 26 -5 29 -11 39 -81 34 -233 217
-385 473 -394 8 0 25 -20 38 -44 40 -75 120 -146 215 -190 77 -35 212 -43 302
-17 103 29 213 114 262 202 19 32 35 49 48 50 60 2 119 10 136 19 10 6 19 9
19 6 0 -8 92 35 125 58 31 22 105 93 105 101 0 2 11 21 25 41 34 50 61 136 63
207 2 29 6 37 21 37 11 0 23 5 26 11 4 5 12 8 18 6 7 -2 29 7 49 20 21 12 40
23 44 23 3 0 12 6 20 14 7 8 24 23 37 33 55 44 117 148 136 227 21 88 9 254
-20 272 -25 15 -5 40 49 64 67 29 168 124 202 190 72 141 72 291 0 434 l-30
58 41 42 c104 103 144 225 129 396 -3 37 -50 150 -77 188 -43 57 -98 106 -154
136 -30 16 -55 30 -57 32 -2 1 10 26 27 55 33 60 69 178 77 254 3 28 7 56 9
63 5 12 -53 -23 -65 -40 -8 -11 -73 -36 -122 -47 -61 -14 -118 -20 -238 -26
-58 -3 -112 -8 -122 -11 -15 -4 -17 6 -16 103 2 146 -15 250 -61 367 l-11 28
-48 -66 c-50 -68 -111 -135 -178 -196 -43 -39 -184 -131 -198 -129 -5 0 -12
-3 -15 -8 -3 -5 -28 -19 -56 -32 -136 -62 -202 -100 -246 -139 l-48 -43 4 123
c3 126 10 180 26 211 5 9 7 17 4 17 -7 0 31 96 62 155 53 103 160 224 243 276
l38 24 -41 77 c-23 43 -47 79 -52 82 -6 2 -33 -14 -60 -36z"/>
</g>
</svg>
