<?xml version="1.0" encoding="utf-8"?>

<svg width="0" height="0" class="hidden" xmlns="http://www.w3.org/2000/svg">
  <symbol fill="none" xmlns="http://www.w3.org/2000/svg" viewBox="0 0 14 14" id="close">
    <path d="M14 1.41L12.59 0L7 5.59L1.41 0L0 1.41L5.59 7L0 12.59L1.41 14L7 8.41L12.59 14L14 12.59L8.41 7L14 1.41Z" fill="currentColor"/>
  </symbol>
  <symbol fill="none" xmlns="http://www.w3.org/2000/svg" viewBox="0 0 24 14" id="check2">
    <path d="M18.0002 1.99984L16.5902 0.589844L10.2502 6.92984L11.6602 8.33984L18.0002 1.99984ZM22.2402 0.589844L11.6602 11.1698L7.48016 6.99984L6.07016 8.40984L11.6602 13.9998L23.6602 1.99984L22.2402 0.589844ZM0.410156 8.40984L6.00016 13.9998L7.41016 12.5898L1.83016 6.99984L0.410156 8.40984Z" fill="currentColor"/>
  </symbol>
  <symbol fill="none" xmlns="http://www.w3.org/2000/svg" viewBox="0 0 18 14" id="check">
    <path d="M6.00039 11.1996L1.80039 6.99961L0.400391 8.39961L6.00039 13.9996L18.0004 1.99961L16.6004 0.599609L6.00039 11.1996Z" fill="currentColor"/>
  </symbol>
  <symbol fill="none" xmlns="http://www.w3.org/2000/svg" viewBox="0 0 576 512" id="check_list">
    <path fill="currentColor" d="M184.1 38.2c9.9 8.9 10.7 24 1.8 33.9l-72 80c-4.4 4.9-10.6 7.8-17.2 7.9s-12.9-2.4-17.6-7L39 113c-9.4-9.4-9.4-24.6 0-33.9s24.6-9.4 33.9 0l22.1 22.1 55.1-61.2c8.9-9.9 24-10.7 33.9-1.8zm0 160c9.9 8.9 10.7 24 1.8 33.9l-72 80c-4.4 4.9-10.6 7.8-17.2 7.9s-12.9-2.4-17.6-7L39 273c-9.4-9.4-9.4-24.6 0-33.9s24.6-9.4 33.9 0l22.1 22.1 55.1-61.2c8.9-9.9 24-10.7 33.9-1.8zM256 96c0-17.7 14.3-32 32-32H512c17.7 0 32 14.3 32 32s-14.3 32-32 32H288c-17.7 0-32-14.3-32-32zm0 160c0-17.7 14.3-32 32-32H512c17.7 0 32 14.3 32 32s-14.3 32-32 32H288c-17.7 0-32-14.3-32-32zM192 416c0-17.7 14.3-32 32-32H512c17.7 0 32 14.3 32 32s-14.3 32-32 32H224c-17.7 0-32-14.3-32-32zM80 464c-26.5 0-48-21.5-48-48s21.5-48 48-48s48 21.5 48 48s-21.5 48-48 48z"/>
  </symbol>
  <symbol fill="none" xmlns="http://www.w3.org/2000/svg" viewBox="0 0 24 24" id="actoion">
    <path d="M14 12l-2 2-2-2 2-2 2 2zm-2-6l2.12 2.12 2.5-2.5L12 1 7.38 5.62l2.5 2.5L12 6zm-6 6l2.12-2.12-2.5-2.5L1 12l4.62 4.62 2.5-2.5L6 12zm12 0l-2.12 2.12 2.5 2.5L23 12l-4.62-4.62-2.5 2.5L18 12zm-6 6l-2.12-2.12-2.5 2.5L12 23l4.62-4.62-2.5-2.5L12 18z" fill="currentColor"></path>
  </symbol>
  <symbol fill="none" xmlns="http://www.w3.org/2000/svg" viewBox="0 0 18 22" id="alarm">
    <path d="M9 21.833a2.173 2.173 0 002.167-2.166H6.833c0 1.191.964 2.166 2.167 2.166zm6.5-6.5V9.917c0-3.326-1.777-6.11-4.875-6.847v-.737c0-.899-.726-1.625-1.625-1.625-.9 0-1.625.726-1.625 1.625v.737C4.265 3.807 2.5 6.58 2.5 9.917v5.416L.333 17.5v1.083h17.334V17.5L15.5 15.333z" fill="currentColor"></path>
  </symbol>
  <symbol fill="none" xmlns="http://www.w3.org/2000/svg" viewBox="0 0 20 20" id="answer">
    <path d="M9.166 15h1.667v-1.667H9.166v1.666zm.833-13.334a8.336 8.336 0 00-8.333 8.333c0 4.6 3.733 8.334 8.333 8.334s8.334-3.734 8.334-8.334-3.734-8.333-8.334-8.333zm0 15a6.676 6.676 0 01-6.666-6.667 6.676 6.676 0 016.666-6.666 6.676 6.676 0 016.667 6.666 6.676 6.676 0 01-6.667 6.667zm0-11.667a3.332 3.332 0 00-3.333 3.334h1.667c0-.917.75-1.667 1.666-1.667.917 0 1.667.75 1.667 1.667 0 1.666-2.5 1.458-2.5 4.166h1.667c0-1.875 2.5-2.083 2.5-4.166a3.332 3.332 0 00-3.334-3.334z" fill="currentColor"></path>
  </symbol>
  <symbol fill="none" xmlns="http://www.w3.org/2000/svg" viewBox="0 0 12 14" id="calendar_icon">
    <path d="M10.6666 1.74998H10.0833V0.583313H8.91663V1.74998H3.08329V0.583313H1.91663V1.74998H1.33329C0.691626 1.74998 0.166626 2.27498 0.166626 2.91665V12.25C0.166626 12.8916 0.691626 13.4166 1.33329 13.4166H10.6666C11.3083 13.4166 11.8333 12.8916 11.8333 12.25V2.91665C11.8333 2.27498 11.3083 1.74998 10.6666 1.74998ZM10.6666 12.25H1.33329V4.66665H10.6666V12.25Z" fill="currentColor"/>
  </symbol>
  <symbol fill="none" xmlns="http://www.w3.org/2000/svg" viewBox="0 0 13 16" id="download">
    <path d="M6.48231 6.24385C6.07186 6.24385 5.74633 6.5546 5.74633 6.91066L5.74633 13.3263L5.81002 14.2779L5.39956 13.7859L4.47959 12.8861C4.35221 12.7631 4.17529 12.6918 3.99129 12.6918C3.64453 12.6918 3.34023 12.9314 3.34023 13.268C3.34023 13.4363 3.41807 13.5658 3.54545 13.6888L5.90909 15.7669C6.10016 15.9417 6.29124 16 6.48231 16C6.68046 16 6.87153 15.9417 7.0626 15.7669L9.42624 13.6888C9.55362 13.5658 9.63146 13.4363 9.63146 13.268C9.63146 12.9314 9.33424 12.6918 8.9804 12.6918C8.79641 12.6918 8.61949 12.7631 8.49211 12.8861L7.57213 13.7859L7.16168 14.2779L7.22537 13.3263L7.22537 6.91066C7.22537 6.5546 6.89276 6.24385 6.48231 6.24385ZM10.5868 1L2.41317 1C0.835057 1 0 1.76392 0 3.19465L0 9.48079C0 10.9115 0.835057 11.6754 2.41317 11.6754H4.27436V10.1929H2.56179C1.95319 10.1929 1.6135 9.90807 1.6135 9.31895L1.6135 3.35002C1.6135 2.76737 1.95319 2.48252 2.56179 2.48252L10.4382 2.48252C11.0539 2.48252 11.3794 2.76737 11.3794 3.35002L11.3794 9.31895C11.3794 9.90807 11.0539 10.1929 10.4382 10.1929H8.69733V11.6754H10.5868C12.1579 11.6754 13 10.9115 13 9.48079L13 3.19465C13 1.76392 12.1579 1 10.5868 1Z" fill="currentColor"/>
  </symbol>
  <symbol fill="none" xmlns="http://www.w3.org/2000/svg" viewBox="0 0 8 16" id="arrow_buy">
    <path d="M4.354.646a.5.5 0 00-.708 0L.464 3.828a.5.5 0 10.708.708L4 1.707l2.828 2.829a.5.5 0 00.708-.708L4.354.646zM4.5 16V1h-1v15h1z" fill="currentColor"></path>
  </symbol>
  <symbol fill="none" xmlns="http://www.w3.org/2000/svg" viewBox="0 0 6 10" id="arrow_left">
    <path d="M5.558 8.443L2.123 5l3.434-3.442L4.5.5 0 5l4.5 4.5 1.058-1.057z" fill="currentColor"></path>
  </symbol>
  <symbol fill="none" xmlns="http://www.w3.org/2000/svg" viewBox="0 0 8 16" id="arrow_sell">
    <path d="M3.646 15.354a.5.5 0 00.708 0l3.182-3.182a.5.5 0 10-.708-.708L4 14.293l-2.828-2.829a.5.5 0 10-.708.708l3.182 3.182zM3.5 0v15h1V0h-1z" fill="currentColor"></path>
  </symbol>
  <symbol fill="none" xmlns="http://www.w3.org/2000/svg" viewBox="0 0 448 512" id="arrow_left_solid">
    <path fill="currentColor" d="M257.5 445.1l-22.2 22.2c-9.4 9.4-24.6 9.4-33.9 0L7 273c-9.4-9.4-9.4-24.6 0-33.9L201.4 44.7c9.4-9.4 24.6-9.4 33.9 0l22.2 22.2c9.5 9.5 9.3 25-.4 34.3L136.6 216H424c13.3 0 24 10.7 24 24v32c0 13.3-10.7 24-24 24H136.6l120.5 114.8c9.8 9.3 10 24.8.4 34.3z"></path>
  </symbol>
  <symbol fill="none" xmlns="http://www.w3.org/2000/svg" viewBox="0 0 24 24" id="chat">
    <path d="M20 2H4c-1.1 0-1.99.9-1.99 2L2 22l4-4h14c1.1 0 2-.9 2-2V4c0-1.1-.9-2-2-2zM9 11H7V9h2v2zm4 0h-2V9h2v2zm4 0h-2V9h2v2z" fill="currentColor"></path>
  </symbol>
  <symbol fill="none" xmlns="http://www.w3.org/2000/svg" viewBox="0 0 24 24" id="dashboard_customize">
    <path d="M3 3h8v8H3V3zm10 0h8v8h-8V3zM3 13h8v8H3v-8zm15 0h-2v3h-3v2h3v3h2v-3h3v-2h-3v-3z" fill="currentColor"></path>
  </symbol>
  <symbol fill="none" xmlns="http://www.w3.org/2000/svg" viewBox="0 0 24 24" id="flag">
    <path d="M12.36 6l.08.39.32 1.61H18v6h-3.36l-.08-.39-.32-1.61H7V6h5.36zM14 4H5v17h2v-7h5.6l.4 2h7V6h-5.6L14 4z" fill="currentColor"></path>
  </symbol>
  <symbol fill="none" xmlns="http://www.w3.org/2000/svg" viewBox="0 0 20 20" id="logout">
    <path d="M14.166 5.833l-1.175 1.175 2.15 2.159H6.666v1.666h8.475l-2.15 2.15 1.175 1.184L18.333 10l-4.167-4.167zM3.333 4.167h6.666V2.5H3.333c-.917 0-1.667.75-1.667 1.667v11.666c0 .917.75 1.667 1.667 1.667h6.666v-1.667H3.333V4.167z" fill="currentColor"></path>
  </symbol>
  <symbol fill="none" xmlns="http://www.w3.org/2000/svg" viewBox="0 0 18 20" id="packet">
    <path d="M16 2h-4.18C11.4.84 10.3 0 9 0 7.7 0 6.6.84 6.18 2H2C.9 2 0 2.9 0 4v14c0 1.1.9 2 2 2h14c1.1 0 2-.9 2-2V4c0-1.1-.9-2-2-2zM9 2c.55 0 1 .45 1 1s-.45 1-1 1-1-.45-1-1 .45-1 1-1zm2 14H4v-2h7v2zm3-4H4v-2h10v2zm0-4H4V6h10v2z" fill="currentColor"></path>
  </symbol>
  <symbol fill="none" xmlns="http://www.w3.org/2000/svg" viewBox="0 0 24 24" id="packets">
    <path d="M2.53 19.65l1.34.56v-9.03l-2.43 5.86c-.41 1.02.08 2.19 1.09 2.61zm19.5-3.7L17.07 3.98a2.013 2.013 0 00-1.81-1.23c-.26 0-.53.04-.79.15L7.1 5.95a1.999 1.999 0 00-1.08 2.6l4.96 11.97a1.998 1.998 0 002.6 1.08l7.36-3.05a1.994 1.994 0 001.09-2.6zM7.88 8.75c-.55 0-1-.45-1-1s.45-1 1-1 1 .45 1 1-.45 1-1 1zm-2 11c0 1.1.9 2 2 2h1.45l-3.45-8.34v6.34z" fill="currentColor"></path>
  </symbol>
  <symbol fill="none" xmlns="http://www.w3.org/2000/svg" viewBox="0 0 20 20" id="search">
    <path d="M13.792 12.167h-.856l-.303-.293a7.01 7.01 0 001.7-4.582 7.041 7.041 0 10-7.041 7.041 7.01 7.01 0 004.582-1.7l.293.303v.856l5.416 5.406 1.615-1.615-5.406-5.416zm-6.5 0a4.868 4.868 0 01-4.875-4.875 4.868 4.868 0 014.875-4.875 4.868 4.868 0 014.875 4.875 4.869 4.869 0 01-4.875 4.875z" fill="currentColor"></path>
  </symbol>
  <symbol fill="none" xmlns="http://www.w3.org/2000/svg" viewBox="0 0 18 18" id="send">
    <path d="M18 0L0 7.53v.98l6.84 2.65L9.48 18h.98L18 0z" fill="currentColor"></path>
  </symbol>
  <symbol fill="none" xmlns="http://www.w3.org/2000/svg" viewBox="0 0 20 20" id="settings">
    <path d="M2.5 14.167v1.666h5v-1.666h-5zm0-10v1.666h8.333V4.167H2.5zM10.833 17.5v-1.667H17.5v-1.666h-6.667V12.5H9.167v5h1.666zm-5-10v1.667H2.5v1.666h3.333V12.5H7.5v-5H5.833zM17.5 10.833V9.167H9.167v1.666H17.5zm-5-3.333h1.667V5.833H17.5V4.167h-3.333V2.5H12.5v5z" fill="currentColor"></path>
  </symbol>
  <symbol fill="none" xmlns="http://www.w3.org/2000/svg" viewBox="0 0 20 19" id="star">
    <path d="M10 15.27L16.18 19l-1.64-7.03L20 7.24l-7.19-.61L10 0 7.19 6.63 0 7.24l5.46 4.73L3.82 19 10 15.27z" fill="currentColor"></path>
  </symbol>
  <symbol fill="none" xmlns="http://www.w3.org/2000/svg" viewBox="0 0 20 20" id="user">
    <path d="M10 4.917a1.75 1.75 0 11.001 3.5 1.75 1.75 0 010-3.5zm0 7.5c2.476 0 5.084 1.217 5.084 1.75v.917H4.917v-.917c0-.533 2.609-1.75 5.084-1.75zm0-9.083a3.332 3.332 0 103.333 3.333 3.332 3.332 0 00-3.332-3.333zm0 7.5c-2.224 0-6.666 1.117-6.666 3.333v2.5h13.333v-2.5c0-2.216-4.441-3.333-6.666-3.333z" fill="currentColor"></path>
  </symbol>
  <symbol fill="none" xmlns="http://www.w3.org/2000/svg" viewBox="0 0 14 14" id="settings_circle">
    <path d="M11.7594 7.62361C11.7834 7.42361 11.7994 7.21561 11.7994 6.99961C11.7994 6.78361 11.7834 6.57561 11.7514 6.37561L13.1034 5.31961C13.2234 5.22361 13.2554 5.04761 13.1834 4.91161L11.9034 2.69561C11.8234 2.55161 11.6554 2.50361 11.5114 2.55161L9.91942 3.19161C9.58342 2.93561 9.23142 2.72761 8.83942 2.56761L8.59942 0.871609C8.57542 0.711609 8.43942 0.599609 8.27942 0.599609H5.71942C5.55942 0.599609 5.43142 0.711609 5.40742 0.871609L5.16742 2.56761C4.77542 2.72761 4.41542 2.94361 4.08742 3.19161L2.49542 2.55161C2.35142 2.49561 2.18342 2.55161 2.10342 2.69561L0.82342 4.91161C0.74342 5.05561 0.77542 5.22361 0.90342 5.31961L2.25542 6.37561C2.22342 6.57561 2.19942 6.79161 2.19942 6.99961C2.19942 7.20761 2.21542 7.42361 2.24742 7.62361L0.89542 8.67961C0.77542 8.77561 0.74342 8.95161 0.81542 9.08761L2.09542 11.3036C2.17542 11.4476 2.34342 11.4956 2.48742 11.4476L4.07942 10.8076C4.41542 11.0636 4.76742 11.2716 5.15942 11.4316L5.39942 13.1276C5.43142 13.2876 5.55942 13.3996 5.71942 13.3996H8.27942C8.43942 13.3996 8.57542 13.2876 8.59142 13.1276L8.83142 11.4316C9.22342 11.2716 9.58342 11.0556 9.91142 10.8076L11.5034 11.4476C11.6474 11.5036 11.8154 11.4476 11.8954 11.3036L13.1754 9.08761C13.2554 8.94361 13.2234 8.77561 13.0954 8.67961L11.7594 7.62361ZM6.99942 9.39961C5.67942 9.39961 4.59942 8.31961 4.59942 6.99961C4.59942 5.67961 5.67942 4.59961 6.99942 4.59961C8.31942 4.59961 9.39942 5.67961 9.39942 6.99961C9.39942 8.31961 8.31942 9.39961 6.99942 9.39961Z" fill="currentColor"/>
  </symbol>
  <symbol fill="none" xmlns="http://www.w3.org/2000/svg" viewBox="0 0 14 14" id="plus">
    <path d="M14 8H8V14H6V8H0V6H6V0H8V6H14V8Z" fill="currentColor"/>
  </symbol>
  <symbol fill="none" xmlns="http://www.w3.org/2000/svg" viewBox="0 0 448 512" id="delete">
  <path fill="currentColor" d="M268 416h24a12 12 0 0 0 12-12V188a12 12 0 0 0-12-12h-24a12 12 0 0 0-12 12v216a12 12 0 0 0 12 12zM432 80h-82.41l-34-56.7A48 48 0 0 0 274.41 0H173.59a48 48 0 0 0-41.16 23.3L98.41 80H16A16 16 0 0 0 0 96v16a16 16 0 0 0 16 16h16v336a48 48 0 0 0 48 48h288a48 48 0 0 0 48-48V128h16a16 16 0 0 0 16-16V96a16 16 0 0 0-16-16zM171.84 50.91A6 6 0 0 1 177 48h94a6 6 0 0 1 5.15 2.91L293.61 80H154.39zM368 464H80V128h288zm-212-48h24a12 12 0 0 0 12-12V188a12 12 0 0 0-12-12h-24a12 12 0 0 0-12 12v216a12 12 0 0 0 12 12z" class=""></path>
  </symbol>
  <symbol fill="none" xmlns="http://www.w3.org/2000/svg" viewBox="0 0 512 512" id="edit">
    <path fill="currentColor" d="M493.26 56.26l-37.51-37.51C443.25 6.25 426.87 0 410.49 0s-32.76 6.25-45.25 18.74l-74.49 74.49L256 127.98 12.85 371.12.15 485.34C-1.45 499.72 9.88 512 23.95 512c.89 0 1.79-.05 2.69-.15l114.14-12.61L384.02 256l34.74-34.74 74.49-74.49c25-25 25-65.52.01-90.51zM118.75 453.39l-67.58 7.46 7.53-67.69 231.24-231.24 31.02-31.02 60.14 60.14-31.02 31.02-231.33 231.33zm340.56-340.57l-44.28 44.28-60.13-60.14 44.28-44.28c4.08-4.08 8.84-4.69 11.31-4.69s7.24.61 11.31 4.69l37.51 37.51c6.24 6.25 6.24 16.4 0 22.63z" class=""></path>
  </symbol>
  <symbol fill="none" xmlns="http://www.w3.org/2000/svg" viewBox="0 0 10 20" id="clip">
    <path d="M8.75065 4.99967V14.583C8.75065 16.4247 7.25898 17.9163 5.41732 17.9163C3.57565 17.9163 2.08398 16.4247 2.08398 14.583V4.16634C2.08398 3.01634 3.01732 2.08301 4.16732 2.08301C5.31732 2.08301 6.25065 3.01634 6.25065 4.16634V12.9163C6.25065 13.3747 5.87565 13.7497 5.41732 13.7497C4.95898 13.7497 4.58398 13.3747 4.58398 12.9163V4.99967H3.33398V12.9163C3.33398 14.0663 4.26732 14.9997 5.41732 14.9997C6.56732 14.9997 7.50065 14.0663 7.50065 12.9163V4.16634C7.50065 2.32467 6.00898 0.833008 4.16732 0.833008C2.32565 0.833008 0.833984 2.32467 0.833984 4.16634V14.583C0.833984 17.1163 2.88398 19.1663 5.41732 19.1663C7.95065 19.1663 10.0007 17.1163 10.0007 14.583V4.99967H8.75065Z" fill="currentColor"/>
  </symbol>
  <symbol fill="none" xmlns="http://www.w3.org/2000/svg" viewBox="0 0 512 512" id="history_solid">
    <path fill="currentColor" d="M504 255.531c.253 136.64-111.18 248.372-247.82 248.468-59.015.042-113.223-20.53-155.822-54.911-11.077-8.94-11.905-25.541-1.839-35.607l11.267-11.267c8.609-8.609 22.353-9.551 31.891-1.984C173.062 425.135 212.781 440 256 440c101.705 0 184-82.311 184-184 0-101.705-82.311-184-184-184-48.814 0-93.149 18.969-126.068 49.932l50.754 50.754c10.08 10.08 2.941 27.314-11.313 27.314H24c-8.837 0-16-7.163-16-16V38.627c0-14.254 17.234-21.393 27.314-11.314l49.372 49.372C129.209 34.136 189.552 8 256 8c136.81 0 247.747 110.78 248 247.531zm-180.912 78.784l9.823-12.63c8.138-10.463 6.253-25.542-4.21-33.679L288 256.349V152c0-13.255-10.745-24-24-24h-16c-13.255 0-24 10.745-24 24v135.651l65.409 50.874c10.463 8.137 25.541 6.253 33.679-4.21z"></path>
  </symbol>
  <symbol fill="none" xmlns="http://www.w3.org/2000/svg" viewBox="0 0 448 512" id="save">
    <path fill="currentColor" d="M433.941 129.941l-83.882-83.882A48 48 0 0 0 316.118 32H48C21.49 32 0 53.49 0 80v352c0 26.51 21.49 48 48 48h352c26.51 0 48-21.49 48-48V163.882a48 48 0 0 0-14.059-33.941zM272 80v80H144V80h128zm122 352H54a6 6 0 0 1-6-6V86a6 6 0 0 1 6-6h42v104c0 13.255 10.745 24 24 24h176c13.255 0 24-10.745 24-24V83.882l78.243 78.243a6 6 0 0 1 1.757 4.243V426a6 6 0 0 1-6 6zM224 232c-48.523 0-88 39.477-88 88s39.477 88 88 88 88-39.477 88-88-39.477-88-88-88zm0 128c-22.056 0-40-17.944-40-40s17.944-40 40-40 40 17.944 40 40-17.944 40-40 40z"></path>
  </symbol>
</svg>